<svg width="24" height="24" xmlns="http://www.w3.org/2000/svg">
  <g id="like">
    <circle cx="12" cy="12" r="10" fill="#4CAF50" />
    <path d="M12,20c-0.6,0-1-0.4-1-1v-6.7l-2.5-2.5l-3.5-3.5c-0.4-0.4-1-0.4-1.4,0l-3.5,3.5l-2.5,2.5V19c0,0.6-0.4,1-1,1s-1-0.4-1-1v-7
        c0-0.3,0.1-0.5,0.3-0.7L7,8.3L8.7,6.6c0.4-0.4,1-0.4,1.4,0l3.5,3.5c0.4,0.4,0.4,1,0,1.4L9.1,18.7C9,18.9,9,19,9,19v0.3
        c0,0.6-0.4,1-1,1s-1-0.4-1-1V13c0-0.6,0.4-1,1-1h0.3c0.5,0,1,0.4,1,1s-0.4,1-1,1H9v4.6l1.5-1.5l4-4l0.7-0.7c0.4-0.4,1-0.4,1.4,0
        l0.7,0.7l0.7,0.7l0.7,0.7l0.7,0.7c0.4,0.4,0.4,1,0,1.4l-0.7,0.7L12,18.7V20z"/>
  </g>
</svg>
